<?xml version="1.0" encoding="UTF-8"?>
<svg width="28.042cm" height="25.645cm" enable-background="new" version="1.1" viewBox="0 0 1059.8 969.28" xml:space="preserve" xmlns="http://www.w3.org/2000/svg" xmlns:cc="http://creativecommons.org/ns#" xmlns:dc="http://purl.org/dc/elements/1.1/" xmlns:rdf="http://www.w3.org/1999/02/22-rdf-syntax-ns#">

  <metadata>
    <rdf:RDF>
      <cc:Work rdf:about="">
        <dc:format>image/svg+xml</dc:format>


        <dc:type rdf:resource="http://purl.org/dc/dcmitype/StillImage"/>


        <dc:title/>


      </cc:Work>


    </rdf:RDF>


  </metadata>


  


  

  


  

  

  


  

  

  

  


  

  

  <g transform="matrix(1.8372 0 0 1.8372 -187.35 -89.225)">
    
      <g id="edges" transform="matrix(.39725 0 0 .39725 519.45 316.04)" fill="none" stroke="#a1a1a1">
        <path class="id_ASV1 id_SpAur" d="m-6.5307-590.28 13.487 165.14" stroke-width="13.933"/>


        <path class="id_ASV1 id_SpVir" d="m-6.5307-590.28 240.06 370.33" stroke-width=".77892"/>


        <path class="id_ASV2 id_ScTae" d="m-174.19-357.64-111.74 144.82" stroke-width="10.858"/>


        <path class="id_ASV2 id_SpAur" d="m-174.19-357.64 181.15-67.507" stroke-width="3.8309"/>


        <path class="id_ASV5 id_AcCoe" d="m96.81 118.27 19.452 350.99" stroke-width="6.6616"/>


        <path class="id_ASV5 id_SpAur" d="m96.81 118.27-89.854-543.42" stroke-width="3.6342"/>


        <path class="id_ASV5 id_SpVir" d="m96.81 118.27 136.72-338.22" stroke-width="4.2275"/>


        <path class="id_ASV6 id_AcCoe" d="m-72.414-62.958 188.68 532.21" stroke-width=".24129"/>


        <path class="id_ASV6 id_AcTra" d="m-72.414-62.958-123.16 423.86" stroke-width="3.0194"/>


        <path class="id_ASV6 id_ScTae" d="m-72.414-62.958-213.51-149.87" stroke-width="5.9881"/>


        <path class="id_ASV6 id_SpAur" d="m-72.414-62.958 79.37-362.19" stroke-width=".82227"/>


        <path class="id_ASV6 id_SpVir" d="m-72.414-62.958 305.94-157" stroke-width="4.0934"/>


        <path class="id_ASV7 id_SpAur" d="m209.3-467.1-202.34 41.955" stroke-width="7.4993"/>


        <path class="id_ASV7 id_SpVir" d="m209.3-467.1 24.232 247.15" stroke-width="7.2441"/>


        <path class="id_ASV8 id_AcCoe" d="m244.88 623.26-128.62-154" stroke-width="14.848"/>


        <path class="id_ASV9 id_AcCoe" d="m156.37 598.31-40.105-129.06" stroke-width="14.904"/>


        <path class="id_ASV12 id_SpAur" d="m189.85-349.5-182.9-75.648" stroke-width="4.7167"/>


        <path class="id_ASV12 id_SpVir" d="m189.85-349.5 43.675 129.54" stroke-width="10.067"/>


        <path class="id_ASV14 id_SpAur" d="m142.09-411.4-135.13-13.752" stroke-width="8.1009"/>


        <path class="id_ASV14 id_SpVir" d="m142.09-411.4 91.443 191.44" stroke-width="6.6848"/>


        <path class="id_ASV15 id_ScTae" d="m-251.52-428.1-34.406 215.28" stroke-width="9.5134"/>


        <path class="id_ASV15 id_SpAur" d="m-251.52-428.1 258.48 2.9541" stroke-width="5.0097"/>


        <path class="id_ASV17 id_AcTra" d="m-324.81 348.19 129.24 12.712" stroke-width="14.986"/>


        <path class="id_ASV18 id_SpVir" d="m337.35-327.03-103.82 107.08" stroke-width="14.983"/>


        <path class="id_ASV20 id_ScTae" d="m-323.44-359.07 37.514 146.24" stroke-width="12.03"/>


        <path class="id_ASV20 id_SpAur" d="m-323.44-359.07 330.4-66.082" stroke-width="2.7351"/>


        <path class="id_ASV21 id_AcCoe" d="m44.097 348.28 72.165 120.98" stroke-width="10.033"/>


        <path class="id_ASV21 id_AcTra" d="m44.097 348.28-239.67 12.627" stroke-width="4.7198"/>


        <path class="id_ASV22 id_AcTra" d="m-288.89 477.41 93.325-116.51" stroke-width="14.905"/>


        <path class="id_ASV23 id_SpAur" d="m374.31-260.27-367.36-164.88" stroke-width=".33224"/>


        <path class="id_ASV23 id_SpVir" d="m374.31-260.27-140.79 40.312" stroke-width="14.459"/>


        <path class="id_ASV25 id_AcCoe" d="m5.8241 553.91 110.44-84.654" stroke-width="11.956"/>


        <path class="id_ASV25 id_AcTra" d="m5.8241 553.91-201.39-193.01" stroke-width="2.7734"/>


        <path class="id_ASV29 id_SpAur" d="m81.88-281.28-74.924-143.87" stroke-width="5.7831"/>


        <path class="id_ASV29 id_SpVir" d="m81.88-281.28 151.65 61.323" stroke-width="9.008"/>


        <path class="id_ASV30 id_SpAur" d="m146.53-291.96-139.57-133.19" stroke-width="4.8689"/>


        <path class="id_ASV30 id_SpVir" d="m146.53-291.96 87.001 72.005" stroke-width="9.9222"/>


        <path class="id_ASV32 id_SpAur" d="m262.96-324.97-256.01-100.18" stroke-width="2.414"/>


        <path class="id_ASV32 id_SpVir" d="m262.96-324.97-29.436 105.02" stroke-width="12.377"/>


        <path class="id_ASV34 id_SpVir" d="m251.16-113.86-17.632-106.09" stroke-width="14.863"/>


        <path class="id_ASV35 id_AcCoe" d="m237.85 404.11-121.59 65.143" stroke-width="14.882"/>


        <path class="id_ASV39 id_SpVir" d="m316.5-166.75-82.974-53.21" stroke-width="15"/>


        <path class="id_ASV41 id_SpAur" d="m247.53-386.71-240.57-38.435" stroke-width="4.5656"/>


        <path class="id_ASV41 id_SpVir" d="m247.53-386.71-13.998 166.76" stroke-width="10.226"/>


        <path class="id_ASV43 id_AcCoe" d="m80.137 620.37 36.125-151.12" stroke-width="14.923"/>


        <path class="id_ASV44 id_AcCoe" d="m-9.9817 449.09 126.24 20.161" stroke-width="8.4784"/>


        <path class="id_ASV44 id_AcTra" d="m-9.9817 449.09-185.59-88.192" stroke-width="6.3127"/>


        <path class="id_ASV48 id_SpVir" d="m311.55-271.42-78.021 51.46" stroke-width="15"/>


        <path class="id_ASV49 id_AcCoe" d="m227.41 538.33-111.15-69.07" stroke-width="14.633"/>


        <path class="id_ASV54 id_AcCoe" d="m270.13 478.93-153.86-9.6785" stroke-width="14.815"/>


        <path class="id_ASV56 id_AcTra" d="m-318.09-7.4207 122.52 368.32" stroke-width="4.4412"/>


        <path class="id_ASV56 id_ScTae" d="m-318.09-7.4207 32.168-205.4" stroke-width="7.8904"/>


        <path class="id_ASV56 id_SpAur" d="m-318.09-7.4207 325.05-417.73" stroke-width=".6168"/>


        <path class="id_ASV56 id_SpVir" d="m-318.09-7.4207 551.62-212.53" stroke-width="1.2469"/>


        <path class="id_ASV57 id_ScTae" d="m-412.69-247.3 126.76 34.478" stroke-width="14.794"/>


        <path class="id_ASV60 id_AcCoe" d="m-73.466 459.94 189.73 9.3118" stroke-width="5.6088"/>


        <path class="id_ASV60 id_AcTra" d="m-73.466 459.94-122.1-99.041" stroke-width="9.1428"/>


        <path class="id_ASV69 id_ScTae" d="m-252.43-331.79-33.499 118.96" stroke-width="11.351"/>


        <path class="id_ASV69 id_SpAur" d="m-252.43-331.79 259.38-93.362" stroke-width="3.3567"/>


        <path class="id_ASV70 id_SpAur" d="m64.87-523.8-57.914 98.649" stroke-width="14.75"/>


        <path class="id_ASV75 id_ScTae" d="m-186.41-269.43-99.52 56.603" stroke-width="12.272"/>


        <path class="id_ASV75 id_SpAur" d="m-186.41-269.43 193.36-155.72" stroke-width="2.5193"/>


        <path class="id_ASV82 id_ScTae" d="m-389.97-166.63 104.04-46.199" stroke-width="14.864"/>


        <path class="id_ASV90 id_AcCoe" d="m196.95-57.453-80.686 526.71" stroke-width="1.8007"/>


        <path class="id_ASV90 id_AcTra" d="m196.95-57.453-392.52 418.36" stroke-width=".31292"/>


        <path class="id_ASV90 id_SpAur" d="m196.95-57.453-189.99-367.69" stroke-width="1.0792"/>


        <path class="id_ASV90 id_SpVir" d="m196.95-57.453 36.58-162.5" stroke-width="11.181"/>


        <path class="id_ASV91 id_AcCoe" d="m-44.845 114.01 161.11 355.25" stroke-width=".11566"/>


        <path class="id_ASV91 id_AcTra" d="m-44.845 114.01-150.72 246.9" stroke-width="8.3998"/>


        <path class="id_ASV91 id_ScTae" d="m-44.845 114.01-241.08-326.83" stroke-width="4.1901"/>


        <path class="id_ASV91 id_SpAur" d="m-44.845 114.01 51.801-539.15" stroke-width=".37939"/>


        <path class="id_ASV91 id_SpVir" d="m-44.845 114.01 278.37-333.96" stroke-width="1.0793"/>


        <path class="id_ASV98 id_SpAur" d="m115.43-343.37-108.47-81.776" stroke-width="6.9422"/>


        <path class="id_ASV98 id_SpVir" d="m115.43-343.37 118.1 123.42" stroke-width="7.8489"/>


        <path class="id_ASV114 id_AcCoe" d="m-307.64 412.16 423.9 57.093" stroke-width=".50456"/>


        <path class="id_ASV114 id_AcTra" d="m-307.64 412.16 112.07-51.26" stroke-width="14.071"/>


        <path class="id_ASV127 id_AcCoe" d="m-97.217 406.66 213.48 62.593" stroke-width="3.4123"/>


        <path class="id_ASV127 id_AcTra" d="m-97.217 406.66-98.352-45.759" stroke-width="11.379"/>


        <path class="id_ASV128 id_AcCoe" d="m-189.23 513.09 305.49-43.832" stroke-width="2.4049"/>


        <path class="id_ASV128 id_AcTra" d="m-189.23 513.09-6.3411-152.18" stroke-width="12.359"/>


        <path class="id_ASV151 id_AcCoe" d="m-98.582 310.11 214.84 159.15" stroke-width="2.242"/>


        <path class="id_ASV151 id_AcTra" d="m-98.582 310.11-96.987 50.796" stroke-width="12.549"/>


        <path class="id_ASV159 id_AcCoe" d="m-286.5 291.55 402.76 177.71" stroke-width=".40205"/>


        <path class="id_ASV159 id_AcTra" d="m-286.5 291.55 90.928 69.355" stroke-width="14.36"/>


        <path class="id_ASV165 id_ScTae" d="m365.69-190.4-651.62-22.42" stroke-width=".54243"/>


        <path class="id_ASV165 id_SpVir" d="m365.69-190.4-132.16-29.551" stroke-width="13.998"/>


        <path class="id_ASV174 id_AcCoe" d="m-212.93 464.56 329.19 4.692" stroke-width="1.6537"/>


        <path class="id_ASV174 id_AcTra" d="m-212.93 464.56 17.356-103.66" stroke-width="13.137"/>


        <path class="id_ASV224 id_AcCoe" d="m-81.302 514.28 197.56-45.026" stroke-width="6.1576"/>


        <path class="id_ASV224 id_AcTra" d="m-81.302 514.28-114.27-153.38" stroke-width="8.5662"/>


        <path class="id_ASV226 id_SpVir" d="m330.68-222.34-97.15 2.3883" stroke-width="14.787"/>


        <path class="id_ASV234 id_AcCoe" d="m-81.532 360.74 197.79 108.51" stroke-width="3.5625"/>


        <path class="id_ASV234 id_AcTra" d="m-81.532 360.74-114.04 0.15829" stroke-width="11.229"/>


        <path class="id_ASV250 id_AcCoe" d="m-47.862 399.28 164.12 69.976" stroke-width="5.3624"/>


        <path class="id_ASV250 id_AcTra" d="m-47.862 399.28-147.71-38.376" stroke-width="9.4287"/>


        <path class="id_ASV268 id_AcTra" d="m-93.096-190.38-102.47 551.28" stroke-width=".47612"/>


        <path class="id_ASV268 id_ScTae" d="m-93.096-190.38-192.83-22.443" stroke-width="8.6494"/>


        <path class="id_ASV268 id_SpAur" d="m-93.096-190.38 100.05-234.77" stroke-width=".5225"/>


        <path class="id_ASV268 id_SpVir" d="m-93.096-190.38 326.62-29.574" stroke-width="4.644"/>


        <path class="id_ASV284 id_ScTae" d="m310.78-113.61-596.7-99.215" stroke-width=".82911"/>


        <path class="id_ASV284 id_SpVir" d="m310.78-113.61-77.249-106.35" stroke-width="13.7"/>


        <path class="id_ASV298 id_ScTae" d="m-339.72-299.84 53.795 87.012" stroke-width="13.282"/>


        <path class="id_ASV298 id_SpAur" d="m-339.72-299.84 346.68-125.31" stroke-width="1.5093"/>


        <path class="id_ASV323 id_AcTra" d="m-151.97 12.93-43.601 347.97" stroke-width="6.8994"/>


        <path class="id_ASV323 id_ScTae" d="m-151.97 12.93-133.96-225.75" stroke-width="2.8303"/>


        <path class="id_ASV323 id_SpAur" d="m-151.97 12.93 158.92-438.08" stroke-width="4.6891"/>


        <path class="id_ASV359 id_AcCoe" d="m-133.38 442.06 249.64 27.195" stroke-width="2.333"/>


        <path class="id_ASV359 id_AcTra" d="m-133.38 442.06-62.192-81.158" stroke-width="12.458"/>


        <path class="id_ASV374 id_AcCoe" d="m-146.79 480.45 263.05-11.199" stroke-width="2.9387"/>


        <path class="id_ASV374 id_AcTra" d="m-146.79 480.45-48.778-119.55" stroke-width="11.544"/>


        <path class="id_ASV374 id_ScTae" d="m-146.79 480.45-139.13-693.28" stroke-width=".1"/>


        <path class="id_ASV395 id_ScTae" d="m136.95-162.53-422.88-50.296" stroke-width="1.2947"/>


        <path class="id_ASV395 id_SpVir" d="m136.95-162.53 96.574-57.427" stroke-width="13.37"/>


        <path class="id_ASV398 id_AcCoe" d="m-31.127 350.65 147.39 118.6" stroke-width="6.5121"/>


        <path class="id_ASV398 id_AcTra" d="m-31.127 350.65-164.44 10.252" stroke-width="7.7011"/>


        <path class="id_ASV398 id_ScTae" d="m-31.127 350.65-254.8-563.47" stroke-width=".36904"/>


        <path class="id_ASV450 id_ScTae" d="m117.83-214.97-403.75 2.144" stroke-width="1.3562"/>


        <path class="id_ASV450 id_SpAur" d="m117.83-214.97-110.87-210.18" stroke-width=".50927"/>


        <path class="id_ASV450 id_SpVir" d="m117.83-214.97 115.7-4.9871" stroke-width="12.717"/>


      </g>


      <g id="nodes" transform="matrix(.39725 0 0 .39725 519.45 316.04)" stroke="#000">
        <circle class="id_ASV1" cx="-6.5307" cy="-590.28" r="36.45" fill="#cc79a7" stroke-width="3"/>
<g fill="#fff" stroke-width="6.1752">

        <circle class="id_AcCoe" cx="116.26" cy="469.26" r="40"/>


        <circle class="id_AcTra" cx="-195.57" cy="360.9" r="40"/>


        <circle class="id_ScTae" cx="-285.93" cy="-212.82" r="40"/>


        <circle class="id_SpAur" cx="6.956" cy="-425.15" r="40"/>


        <circle class="id_SpVir" cx="233.53" cy="-219.96" r="40"/>


        </g><g stroke-width="3">
<circle class="id_ASV2" cx="-174.19" cy="-357.64" r="33.464" fill="#cc79a7"/>


        <circle class="id_ASV5" cx="96.81" cy="118.27" r="31.947" fill="#56b4e9"/>


        <circle class="id_ASV6" cx="-72.414" cy="-62.958" r="31.289" fill="#e69f00"/>


        <circle class="id_ASV7" cx="209.3" cy="-467.1" r="31.57" fill="#cc79a7"/>


        <circle class="id_ASV8" cx="244.88" cy="623.26" r="30.026" fill="#e69f00"/>


        <circle class="id_ASV9" cx="156.37" cy="598.31" r="29.724" fill="#56b4e9"/>


        <circle class="id_ASV12" cx="189.85" cy="-349.5" r="27.426" fill="#56b4e9"/>


        <circle class="id_ASV14" cx="142.09" cy="-411.4" r="26.506" fill="#cb79a6"/>


        <circle class="id_ASV15" cx="-251.52" cy="-428.1" r="27.127" fill="#cc79a7"/>


        <circle class="id_ASV17" cx="-324.81" cy="348.19" r="27.001" fill="#0072b2"/>


        <circle class="id_ASV18" cx="337.35" cy="-327.03" r="26.435" fill="#cc79a7"/>


        <circle class="id_ASV20" cx="-323.44" cy="-359.07" r="25.737" fill="#cc79a7"/>


        <circle class="id_ASV21" cx="44.097" cy="348.28" r="25.67" fill="#56b4e9"/>


        <circle class="id_ASV22" cx="-288.89" cy="477.41" r="25.601" fill="#e69f00"/>


        <circle class="id_ASV23" cx="374.31" cy="-260.27" r="25.48" fill="#cb79a6"/>


        <circle class="id_ASV25" cx="5.8241" cy="553.91" r="25.427" fill="#56b4e9"/>


        <circle class="id_ASV29" cx="81.88" cy="-281.28" r="24.33" fill="#e69f00"/>


        <circle class="id_ASV30" cx="146.53" cy="-291.96" r="24.394" fill="#0072b2"/>


        <circle class="id_ASV32" cx="262.96" cy="-324.97" r="23.418" fill="#cb79a6"/>


        <circle class="id_ASV34" cx="251.16" cy="-113.86" r="23.681" fill="#56b4e9"/>


        <circle class="id_ASV35" cx="237.85" cy="404.11" r="23.693" fill="#0072b2"/>


        <circle class="id_ASV39" cx="316.5" cy="-166.75" r="23.373" fill="#56b4e9"/>


        <circle class="id_ASV41" cx="247.53" cy="-386.71" r="23.278" fill="#cc79a7"/>


        <circle class="id_ASV43" cx="80.137" cy="620.37" r="23.154" fill="#e69f00"/>


        <circle class="id_ASV44" cx="-9.9817" cy="449.09" r="22.974" fill="#56b4e9"/>


        <circle class="id_ASV48" cx="311.55" cy="-271.42" r="22.615" fill="#e69f00"/>


        <circle class="id_ASV49" cx="227.41" cy="538.33" r="22.594" fill="#e69f00"/>


        <circle class="id_ASV54" cx="270.13" cy="478.93" r="22.007" fill="#56b4e9"/>


        <circle class="id_ASV56" cx="-318.09" cy="-7.4207" r="21.249" fill="#e69f00"/>


        <circle class="id_ASV57" cx="-412.69" cy="-247.3" r="21.323" fill="#cc79a7"/>


        <circle class="id_ASV60" cx="-73.466" cy="459.94" r="20.88" fill="#56b4e9"/>

<g fill="#cc79a7">

        <circle class="id_ASV69" cx="-252.43" cy="-331.79" r="20.007"/>


        <circle class="id_ASV70" cx="64.87" cy="-523.8" r="19.937"/>


        <circle class="id_ASV75" cx="-186.41" cy="-269.43" r="19.417"/>


        <circle class="id_ASV82" cx="-389.97" cy="-166.63" r="19.117"/>
</g>
<g fill="#e69f00">

        <circle class="id_ASV90" cx="196.95" cy="-57.453" r="18.692"/>


        <circle class="id_ASV91" cx="-44.845" cy="114.01" r="18.092"/>


        <circle class="id_ASV98" cx="115.43" cy="-343.37" r="17.98"/>


        </g>
<circle class="id_ASV114" cx="-307.64" cy="412.16" r="17.386" fill="#cc79a7"/>
<g fill="#e69f00">

        <circle class="id_ASV127" cx="-97.217" cy="406.66" r="16.699"/>


        <circle class="id_ASV128" cx="-189.23" cy="513.09" r="16.671"/>


        <circle class="id_ASV151" cx="-98.582" cy="310.11" r="15.741"/>


        <circle class="id_ASV159" cx="-286.5" cy="291.55" r="15.5"/>


        <circle class="id_ASV165" cx="365.69" cy="-190.4" r="15.268"/>


        </g>
<circle class="id_ASV174" cx="-212.93" cy="464.56" r="15.029" fill="#56b4e9"/>
<g fill="#e69f00">

        <circle class="id_ASV224" cx="-81.302" cy="514.28" r="13.735"/>


        <circle class="id_ASV226" cx="330.68" cy="-222.34" r="13.674"/>


        <circle class="id_ASV234" cx="-81.532" cy="360.74" r="13.519"/>


        <circle class="id_ASV250" cx="-47.862" cy="399.28" r="13.237"/>


        </g>
<circle class="id_ASV268" cx="-93.096" cy="-190.38" r="12.202" fill="#56b4e9"/>


        <circle class="id_ASV284" cx="310.78" cy="-113.61" r="12.492" fill="#e69f00"/>


        <circle class="id_ASV298" cx="-339.72" cy="-299.84" r="11.763" fill="#cc79a7"/>

<g fill="#e69f00">

        <circle class="id_ASV323" cx="-151.97" cy="12.93" r="11.827"/>


        <circle class="id_ASV359" cx="-133.38" cy="442.06" r="11.293"/>


        <circle class="id_ASV374" cx="-146.79" cy="480.45" r="11.072"/>


        <circle class="id_ASV395" cx="136.95" cy="-162.53" r="10.723"/>


        <circle class="id_ASV398" cx="-31.127" cy="350.65" r="10.52"/>


        <circle class="id_ASV450" cx="117.83" cy="-214.97" r="10"/>


      </g>
</g></g>


    

    <g transform="matrix(-.39725 0 0 -.39725 259.75 312.89)" enable-background="new" fill="none" stroke="#a1a1a1">
      <path class="id_ASV1 id_SpAur" d="m-6.5307-590.28 13.487 165.14" stroke-width="13.933"/>


      <path class="id_ASV1 id_SpVir" d="m-6.5307-590.28 240.06 370.33" stroke-width=".77892"/>


      <path class="id_ASV2 id_ScTae" d="m-174.19-357.64-111.74 144.82" stroke-width="10.858"/>


      <path class="id_ASV2 id_SpAur" d="m-174.19-357.64 181.15-67.507" stroke-width="3.8309"/>


      <path class="id_ASV5 id_AcCoe" d="m96.81 118.27 19.452 350.99" stroke-width="6.6616"/>


      <path class="id_ASV5 id_SpAur" d="m96.81 118.27-89.854-543.42" stroke-width="3.6342"/>


      <path class="id_ASV5 id_SpVir" d="m96.81 118.27 136.72-338.22" stroke-width="4.2275"/>


      <path class="id_ASV6 id_AcCoe" d="m-72.414-62.958 188.68 532.21" stroke-width=".24129"/>


      <path class="id_ASV6 id_AcTra" d="m-72.414-62.958-123.16 423.86" stroke-width="3.0194"/>


      <path class="id_ASV6 id_ScTae" d="m-72.414-62.958-213.51-149.87" stroke-width="5.9881"/>


      <path class="id_ASV6 id_SpAur" d="m-72.414-62.958 79.37-362.19" stroke-width=".82227"/>


      <path class="id_ASV6 id_SpVir" d="m-72.414-62.958 305.94-157" stroke-width="4.0934"/>


      <path class="id_ASV7 id_SpAur" d="m209.3-467.1-202.34 41.955" stroke-width="7.4993"/>


      <path class="id_ASV7 id_SpVir" d="m209.3-467.1 24.232 247.15" stroke-width="7.2441"/>


      <path class="id_ASV8 id_AcCoe" d="m244.88 623.26-128.62-154" stroke-width="14.848"/>


      <path class="id_ASV9 id_AcCoe" d="m156.37 598.31-40.105-129.06" stroke-width="14.904"/>


      <path class="id_ASV12 id_SpAur" d="m189.85-349.5-182.9-75.648" stroke-width="4.7167"/>


      <path class="id_ASV12 id_SpVir" d="m189.85-349.5 43.675 129.54" stroke-width="10.067"/>


      <path class="id_ASV14 id_SpAur" d="m142.09-411.4-135.13-13.752" stroke-width="8.1009"/>


      <path class="id_ASV14 id_SpVir" d="m142.09-411.4 91.443 191.44" stroke-width="6.6848"/>


      <path class="id_ASV15 id_ScTae" d="m-251.52-428.1-34.406 215.28" stroke-width="9.5134"/>


      <path class="id_ASV15 id_SpAur" d="m-251.52-428.1 258.48 2.9541" stroke-width="5.0097"/>


      <path class="id_ASV17 id_AcTra" d="m-324.81 348.19 129.24 12.712" stroke-width="14.986"/>


      <path class="id_ASV18 id_SpVir" d="m337.35-327.03-103.82 107.08" stroke-width="14.983"/>


      <path class="id_ASV20 id_ScTae" d="m-323.44-359.07 37.514 146.24" stroke-width="12.03"/>


      <path class="id_ASV20 id_SpAur" d="m-323.44-359.07 330.4-66.082" stroke-width="2.7351"/>


      <path class="id_ASV21 id_AcCoe" d="m44.097 348.28 72.165 120.98" stroke-width="10.033"/>


      <path class="id_ASV21 id_AcTra" d="m44.097 348.28-239.67 12.627" stroke-width="4.7198"/>


      <path class="id_ASV22 id_AcTra" d="m-288.89 477.41 93.325-116.51" stroke-width="14.905"/>


      <path class="id_ASV23 id_SpAur" d="m374.31-260.27-367.36-164.88" stroke-width=".33224"/>


      <path class="id_ASV23 id_SpVir" d="m374.31-260.27-140.79 40.312" stroke-width="14.459"/>


      <path class="id_ASV25 id_AcCoe" d="m5.8241 553.91 110.44-84.654" stroke-width="11.956"/>


      <path class="id_ASV25 id_AcTra" d="m5.8241 553.91-201.39-193.01" stroke-width="2.7734"/>


      <path class="id_ASV29 id_SpAur" d="m81.88-281.28-74.924-143.87" stroke-width="5.7831"/>


      <path class="id_ASV29 id_SpVir" d="m81.88-281.28 151.65 61.323" stroke-width="9.008"/>


      <path class="id_ASV30 id_SpAur" d="m146.53-291.96-139.57-133.19" stroke-width="4.8689"/>


      <path class="id_ASV30 id_SpVir" d="m146.53-291.96 87.001 72.005" stroke-width="9.9222"/>


      <path class="id_ASV32 id_SpAur" d="m262.96-324.97-256.01-100.18" stroke-width="2.414"/>


      <path class="id_ASV32 id_SpVir" d="m262.96-324.97-29.436 105.02" stroke-width="12.377"/>


      <path class="id_ASV34 id_SpVir" d="m251.16-113.86-17.632-106.09" stroke-width="14.863"/>


      <path class="id_ASV35 id_AcCoe" d="m237.85 404.11-121.59 65.143" stroke-width="14.882"/>


      <path class="id_ASV39 id_SpVir" d="m316.5-166.75-82.974-53.21" stroke-width="15"/>


      <path class="id_ASV41 id_SpAur" d="m247.53-386.71-240.57-38.435" stroke-width="4.5656"/>


      <path class="id_ASV41 id_SpVir" d="m247.53-386.71-13.998 166.76" stroke-width="10.226"/>


      <path class="id_ASV43 id_AcCoe" d="m80.137 620.37 36.125-151.12" stroke-width="14.923"/>


      <path class="id_ASV44 id_AcCoe" d="m-9.9817 449.09 126.24 20.161" stroke-width="8.4784"/>


      <path class="id_ASV44 id_AcTra" d="m-9.9817 449.09-185.59-88.192" stroke-width="6.3127"/>


      <path class="id_ASV48 id_SpVir" d="m311.55-271.42-78.021 51.46" stroke-width="15"/>


      <path class="id_ASV49 id_AcCoe" d="m227.41 538.33-111.15-69.07" stroke-width="14.633"/>


      <path class="id_ASV54 id_AcCoe" d="m270.13 478.93-153.86-9.6785" stroke-width="14.815"/>


      <path class="id_ASV56 id_AcTra" d="m-318.09-7.4207 122.52 368.32" stroke-width="4.4412"/>


      <path class="id_ASV56 id_ScTae" d="m-318.09-7.4207 32.168-205.4" stroke-width="7.8904"/>


      <path class="id_ASV56 id_SpAur" d="m-318.09-7.4207 325.05-417.73" stroke-width=".6168"/>


      <path class="id_ASV56 id_SpVir" d="m-318.09-7.4207 551.62-212.53" stroke-width="1.2469"/>


      <path class="id_ASV57 id_ScTae" d="m-412.69-247.3 126.76 34.478" stroke-width="14.794"/>


      <path class="id_ASV60 id_AcCoe" d="m-73.466 459.94 189.73 9.3118" stroke-width="5.6088"/>


      <path class="id_ASV60 id_AcTra" d="m-73.466 459.94-122.1-99.041" stroke-width="9.1428"/>


      <path class="id_ASV69 id_ScTae" d="m-252.43-331.79-33.499 118.96" stroke-width="11.351"/>


      <path class="id_ASV69 id_SpAur" d="m-252.43-331.79 259.38-93.362" stroke-width="3.3567"/>


      <path class="id_ASV70 id_SpAur" d="m64.87-523.8-57.914 98.649" stroke-width="14.75"/>


      <path class="id_ASV75 id_ScTae" d="m-186.41-269.43-99.52 56.603" stroke-width="12.272"/>


      <path class="id_ASV75 id_SpAur" d="m-186.41-269.43 193.36-155.72" stroke-width="2.5193"/>


      <path class="id_ASV82 id_ScTae" d="m-389.97-166.63 104.04-46.199" stroke-width="14.864"/>


      <path class="id_ASV90 id_AcCoe" d="m196.95-57.453-80.686 526.71" stroke-width="1.8007"/>


      <path class="id_ASV90 id_AcTra" d="m196.95-57.453-392.52 418.36" stroke-width=".31292"/>


      <path class="id_ASV90 id_SpAur" d="m196.95-57.453-189.99-367.69" stroke-width="1.0792"/>


      <path class="id_ASV90 id_SpVir" d="m196.95-57.453 36.58-162.5" stroke-width="11.181"/>


      <path class="id_ASV91 id_AcCoe" d="m-44.845 114.01 161.11 355.25" stroke-width=".11566"/>


      <path class="id_ASV91 id_AcTra" d="m-44.845 114.01-150.72 246.9" stroke-width="8.3998"/>


      <path class="id_ASV91 id_ScTae" d="m-44.845 114.01-241.08-326.83" stroke-width="4.1901"/>


      <path class="id_ASV91 id_SpAur" d="m-44.845 114.01 51.801-539.15" stroke-width=".37939"/>


      <path class="id_ASV91 id_SpVir" d="m-44.845 114.01 278.37-333.96" stroke-width="1.0793"/>


      <path class="id_ASV98 id_SpAur" d="m115.43-343.37-108.47-81.776" stroke-width="6.9422"/>


      <path class="id_ASV98 id_SpVir" d="m115.43-343.37 118.1 123.42" stroke-width="7.8489"/>


      <path class="id_ASV114 id_AcCoe" d="m-307.64 412.16 423.9 57.093" stroke-width=".50456"/>


      <path class="id_ASV114 id_AcTra" d="m-307.64 412.16 112.07-51.26" stroke-width="14.071"/>


      <path class="id_ASV127 id_AcCoe" d="m-97.217 406.66 213.48 62.593" stroke-width="3.4123"/>


      <path class="id_ASV127 id_AcTra" d="m-97.217 406.66-98.352-45.759" stroke-width="11.379"/>


      <path class="id_ASV128 id_AcCoe" d="m-189.23 513.09 305.49-43.832" stroke-width="2.4049"/>


      <path class="id_ASV128 id_AcTra" d="m-189.23 513.09-6.3411-152.18" stroke-width="12.359"/>


      <path class="id_ASV151 id_AcCoe" d="m-98.582 310.11 214.84 159.15" stroke-width="2.242"/>


      <path class="id_ASV151 id_AcTra" d="m-98.582 310.11-96.987 50.796" stroke-width="12.549"/>


      <path class="id_ASV159 id_AcCoe" d="m-286.5 291.55 402.76 177.71" stroke-width=".40205"/>


      <path class="id_ASV159 id_AcTra" d="m-286.5 291.55 90.928 69.355" stroke-width="14.36"/>


      <path class="id_ASV165 id_ScTae" d="m365.69-190.4-651.62-22.42" stroke-width=".54243"/>


      <path class="id_ASV165 id_SpVir" d="m365.69-190.4-132.16-29.551" stroke-width="13.998"/>


      <path class="id_ASV174 id_AcCoe" d="m-212.93 464.56 329.19 4.692" stroke-width="1.6537"/>


      <path class="id_ASV174 id_AcTra" d="m-212.93 464.56 17.356-103.66" stroke-width="13.137"/>


      <path class="id_ASV224 id_AcCoe" d="m-81.302 514.28 197.56-45.026" stroke-width="6.1576"/>


      <path class="id_ASV224 id_AcTra" d="m-81.302 514.28-114.27-153.38" stroke-width="8.5662"/>


      <path class="id_ASV226 id_SpVir" d="m330.68-222.34-97.15 2.3883" stroke-width="14.787"/>


      <path class="id_ASV234 id_AcCoe" d="m-81.532 360.74 197.79 108.51" stroke-width="3.5625"/>


      <path class="id_ASV234 id_AcTra" d="m-81.532 360.74-114.04 0.15829" stroke-width="11.229"/>


      <path class="id_ASV250 id_AcCoe" d="m-47.862 399.28 164.12 69.976" stroke-width="5.3624"/>


      <path class="id_ASV250 id_AcTra" d="m-47.862 399.28-147.71-38.376" stroke-width="9.4287"/>


      <path class="id_ASV268 id_AcTra" d="m-93.096-190.38-102.47 551.28" stroke-width=".47612"/>


      <path class="id_ASV268 id_ScTae" d="m-93.096-190.38-192.83-22.443" stroke-width="8.6494"/>


      <path class="id_ASV268 id_SpAur" d="m-93.096-190.38 100.05-234.77" stroke-width=".5225"/>


      <path class="id_ASV268 id_SpVir" d="m-93.096-190.38 326.62-29.574" stroke-width="4.644"/>


      <path class="id_ASV284 id_ScTae" d="m310.78-113.61-596.7-99.215" stroke-width=".82911"/>


      <path class="id_ASV284 id_SpVir" d="m310.78-113.61-77.249-106.35" stroke-width="13.7"/>


      <path class="id_ASV298 id_ScTae" d="m-339.72-299.84 53.795 87.012" stroke-width="13.282"/>


      <path class="id_ASV298 id_SpAur" d="m-339.72-299.84 346.68-125.31" stroke-width="1.5093"/>


      <path class="id_ASV323 id_AcTra" d="m-151.97 12.93-43.601 347.97" stroke-width="6.8994"/>


      <path class="id_ASV323 id_ScTae" d="m-151.97 12.93-133.96-225.75" stroke-width="2.8303"/>


      <path class="id_ASV323 id_SpAur" d="m-151.97 12.93 158.92-438.08" stroke-width="4.6891"/>


      <path class="id_ASV359 id_AcCoe" d="m-133.38 442.06 249.64 27.195" stroke-width="2.333"/>


      <path class="id_ASV359 id_AcTra" d="m-133.38 442.06-62.192-81.158" stroke-width="12.458"/>


      <path class="id_ASV374 id_AcCoe" d="m-146.79 480.45 263.05-11.199" stroke-width="2.9387"/>


      <path class="id_ASV374 id_AcTra" d="m-146.79 480.45-48.778-119.55" stroke-width="11.544"/>


      <path class="id_ASV374 id_ScTae" d="m-146.79 480.45-139.13-693.28" stroke-width=".1"/>


      <path class="id_ASV395 id_ScTae" d="m136.95-162.53-422.88-50.296" stroke-width="1.2947"/>


      <path class="id_ASV395 id_SpVir" d="m136.95-162.53 96.574-57.427" stroke-width="13.37"/>


      <path class="id_ASV398 id_AcCoe" d="m-31.127 350.65 147.39 118.6" stroke-width="6.5121"/>


      <path class="id_ASV398 id_AcTra" d="m-31.127 350.65-164.44 10.252" stroke-width="7.7011"/>


      <path class="id_ASV398 id_ScTae" d="m-31.127 350.65-254.8-563.47" stroke-width=".36904"/>


      <path class="id_ASV450 id_ScTae" d="m117.83-214.97-403.75 2.144" stroke-width="1.3562"/>


      <path class="id_ASV450 id_SpAur" d="m117.83-214.97-110.87-210.18" stroke-width=".50927"/>


      <path class="id_ASV450 id_SpVir" d="m117.83-214.97 115.7-4.9871" stroke-width="12.717"/>


    </g>


    <g transform="matrix(-.39725 0 0 -.39725 261.38 308.68)" enable-background="new" stroke="#000">
      <circle class="id_ASV1" cx="-6.5307" cy="-590.28" r="36.45" fill="#cc79a7" stroke-width="3"/>
<g fill="#fff" stroke-width="6.1752">

      <circle class="id_AcCoe" cx="116.26" cy="469.26" r="40"/>


      <circle class="id_AcTra" cx="-195.57" cy="360.9" r="40"/>


      <circle class="id_ScTae" cx="-285.93" cy="-212.82" r="40"/>


      <circle class="id_SpAur" cx="6.956" cy="-425.15" r="40"/>


      <circle class="id_SpVir" cx="233.53" cy="-219.96" r="40"/>


      </g>
<g stroke-width="3"><circle class="id_ASV2" cx="-174.19" cy="-357.64" r="33.464" fill="#cc79a7"/>


      <circle class="id_ASV5" cx="96.81" cy="118.27" r="31.947" fill="#56b4e9"/>


      <circle class="id_ASV6" cx="-72.414" cy="-62.958" r="31.289" fill="#e69f00"/>


      <circle class="id_ASV7" cx="209.3" cy="-467.1" r="31.57" fill="#cc79a7"/>


      <circle class="id_ASV8" cx="244.88" cy="623.26" r="30.026" fill="#e69f00"/>


      <circle class="id_ASV9" cx="156.37" cy="598.31" r="29.724" fill="#56b4e9"/>


      <circle class="id_ASV12" cx="189.85" cy="-349.5" r="27.426" fill="#56b4e9"/>


      <circle class="id_ASV14" cx="142.09" cy="-411.4" r="26.506" fill="#cb79a6"/>


      <circle class="id_ASV15" cx="-251.52" cy="-428.1" r="27.127" fill="#cc79a7"/>


      <circle class="id_ASV17" cx="-324.81" cy="348.19" r="27.001" fill="#0072b2"/>


      <circle class="id_ASV18" cx="337.35" cy="-327.03" r="26.435" fill="#cc79a7"/>


      </g>
<circle class="id_ASV20" cx="-320.94" cy="-369.92" r="31.142" fill="#cc79a7" stroke-width="3.63"/>
<g stroke-width="3">

      <circle class="id_ASV21" cx="44.097" cy="348.28" r="25.67" fill="#56b4e9"/>


      <circle class="id_ASV22" cx="-288.89" cy="477.41" r="25.601" fill="#e69f00"/>


      <circle class="id_ASV23" cx="374.31" cy="-260.27" r="25.48" fill="#cb79a6"/>


      <circle class="id_ASV25" cx="5.8241" cy="553.91" r="25.427" fill="#56b4e9"/>


      <circle class="id_ASV29" cx="81.88" cy="-281.28" r="24.33" fill="#e69f00"/>


      <circle class="id_ASV30" cx="146.53" cy="-291.96" r="24.394" fill="#0072b2"/>


      <circle class="id_ASV32" cx="262.96" cy="-324.97" r="23.418" fill="#cb79a6"/>


      <circle class="id_ASV34" cx="251.16" cy="-113.86" r="23.681" fill="#56b4e9"/>


      <circle class="id_ASV35" cx="237.85" cy="404.11" r="23.693" fill="#0072b2"/>


      <circle class="id_ASV39" cx="316.5" cy="-166.75" r="23.373" fill="#56b4e9"/>


      <circle class="id_ASV41" cx="247.53" cy="-386.71" r="23.278" fill="#cc79a7"/>


      <circle class="id_ASV43" cx="80.137" cy="620.37" r="23.154" fill="#e69f00"/>


      <circle class="id_ASV44" cx="-9.9817" cy="449.09" r="22.974" fill="#56b4e9"/>


      <circle class="id_ASV48" cx="311.55" cy="-271.42" r="22.615" fill="#e69f00"/>


      <circle class="id_ASV49" cx="227.41" cy="538.33" r="22.594" fill="#e69f00"/>


      <circle class="id_ASV54" cx="270.13" cy="478.93" r="22.007" fill="#56b4e9"/>


      </g>
<circle class="id_ASV56" cx="-323.1" cy="-12.423" r="37.643" fill="#56b4e9" stroke-width="5.3147"/><g stroke-width="3">


      <circle class="id_ASV57" cx="-412.69" cy="-247.3" r="21.323" fill="#cc79a7"/>


      <circle class="id_ASV60" cx="-73.466" cy="459.94" r="20.88" fill="#56b4e9"/>
<g fill="#cc79a7">

      <circle class="id_ASV69" cx="-252.43" cy="-331.79" r="20.007"/>


      <circle class="id_ASV70" cx="64.87" cy="-523.8" r="19.937"/>


      <circle class="id_ASV75" cx="-186.41" cy="-269.43" r="19.417"/>


      <circle class="id_ASV82" cx="-389.97" cy="-166.63" r="19.117"/>
</g>
<g fill="#e69f00">

      <circle class="id_ASV90" cx="196.95" cy="-57.453" r="18.692"/>


      <circle class="id_ASV91" cx="-44.845" cy="114.01" r="18.092"/>


      <circle class="id_ASV98" cx="115.43" cy="-343.37" r="17.98"/>


      </g>
<circle class="id_ASV114" cx="-307.64" cy="412.16" r="17.386" fill="#cc79a7"/>
<g fill="#e69f00">

      <circle class="id_ASV127" cx="-97.217" cy="406.66" r="16.699"/>


      <circle class="id_ASV128" cx="-189.23" cy="513.09" r="16.671"/>


      <circle class="id_ASV151" cx="-98.582" cy="310.11" r="15.741"/>


      <circle class="id_ASV159" cx="-286.5" cy="291.55" r="15.5"/>


      <circle class="id_ASV165" cx="365.69" cy="-190.4" r="15.268"/>


      </g>
<circle class="id_ASV174" cx="-212.93" cy="464.56" r="15.029" fill="#56b4e9"/>
<g fill="#e69f00">

      <circle class="id_ASV224" cx="-81.302" cy="514.28" r="13.735"/>


      <circle class="id_ASV226" cx="330.68" cy="-222.34" r="13.674"/>


      <circle class="id_ASV234" cx="-81.532" cy="360.74" r="13.519"/>


      <circle class="id_ASV250" cx="-47.862" cy="399.28" r="13.237"/>


      </g>
<circle class="id_ASV268" cx="-93.096" cy="-190.38" r="12.202" fill="#56b4e9"/>


      <circle class="id_ASV284" cx="310.78" cy="-113.61" r="12.492" fill="#e69f00"/>


      </g><circle class="id_ASV298" cx="-353.08" cy="-313.19" r="27.737" fill="#cc79a7" stroke-width="7.0738"/>
<g fill="#e69f00" stroke-width="3">

      <circle class="id_ASV323" cx="-151.97" cy="12.93" r="11.827"/>


      <circle class="id_ASV359" cx="-133.38" cy="442.06" r="11.293"/>


      <circle class="id_ASV374" cx="-146.79" cy="480.45" r="11.072"/>


      <circle class="id_ASV395" cx="136.95" cy="-162.53" r="10.723"/>


      <circle class="id_ASV398" cx="-31.127" cy="350.65" r="10.52"/>


      <circle class="id_ASV450" cx="117.83" cy="-214.97" r="10"/>


    </g>
</g>


  </g>


</svg>
